# Blender 4.5.4 LTS
# www.blender.org
mtllib chair.mtl
o Cube.001
v -1.000000 0.900000 1.000000
v -1.003127 0.912728 1.000000
v 0.350957 0.000000 0.717931
v -1.003127 3.342324 1.000000
v -0.749844 0.000000 0.717931
v -1.003127 0.912728 -1.000000
v -0.749844 0.000000 -0.938128
v -1.003127 3.342324 -1.000000
v -0.859170 0.912728 1.000000
v 0.350957 0.000000 0.948220
v 0.335391 0.000000 -0.938128
v -0.859170 3.342324 1.000000
v -0.859170 0.912728 -1.000000
v 0.680176 0.000000 0.717931
v -0.749844 0.000000 0.948220
v -0.859170 3.342324 -1.000000
v -1.000000 1.100000 1.000000
v -0.749844 0.000000 -0.707840
v 0.680176 0.000000 0.948220
v -0.420626 0.000000 0.717931
v -1.000000 0.900000 -1.000000
v 0.335391 0.000000 -0.707840
v -0.420626 0.000000 0.948220
v -0.420626 0.000000 -0.938128
v -1.000000 1.100000 -1.000000
v 1.000000 0.900000 1.000000
v -0.420626 0.000000 -0.707840
v 0.664609 0.000000 -0.938128
v 1.000000 1.100000 1.000000
v 1.000000 0.900000 -1.000000
v 0.664609 0.000000 -0.707840
v 1.000000 1.100000 -1.000000
v 0.335391 0.900000 -0.707840
v 0.335391 0.900000 -0.938128
v 0.664609 0.900000 -0.707840
v 0.664609 0.900000 -0.938128
v -0.749844 0.900000 -0.707840
v -0.420626 0.900000 -0.938128
v -0.749844 0.900000 -0.938128
v -0.420626 0.900000 -0.707840
v -0.749844 0.900000 0.948220
v -0.420626 0.900000 0.717931
v -0.420626 0.900000 0.948220
v -0.749844 0.900000 0.717931
v 0.350957 0.900000 0.948220
v 0.680176 0.900000 0.948220
v 0.350957 0.900000 0.717931
v 0.680176 0.900000 0.717931
v -1.000000 0.912728 1.000000
v -1.000000 0.912728 -1.000000
v -0.859170 1.100000 -1.000000
v -0.859170 1.100000 1.000000
v -0.870267 1.100000 1.000000
v -0.859170 1.085917 1.000000
v -0.869493 1.086949 1.000000
vn -1.0000 -0.0000 -0.0000
vn -0.0000 -0.0000 -1.0000
vn 1.0000 -0.0000 -0.0000
vn -0.0000 -0.0000 1.0000
vn -0.0000 -1.0000 -0.0000
vn -0.0000 1.0000 -0.0000
vt 0.375000 0.000000
vt 0.390911 0.250000
vt 0.375000 0.250000
vt 0.390911 0.267604
vt 0.625000 0.250000
vt 0.625000 0.500000
vt 0.375000 0.750000
vt 0.375000 0.500000
vt 0.607396 0.982396
vt 0.390911 0.982396
vt 0.625000 0.982396
vt 0.608687 0.983687
vt 0.390911 1.000000
vt 0.293870 0.743528
vt 0.197422 0.743528
vt 0.293870 0.714742
vt 0.335022 0.714742
vt 0.125000 0.750000
vt 0.197422 0.507734
vt 0.291924 0.507734
vt 0.197422 0.536520
vt 0.125000 0.500000
vt 0.857396 0.750000
vt 0.625000 0.750000
vt 0.600000 0.000000
vt 0.600000 0.500000
vt 0.600000 0.250000
vt 0.600000 0.750000
vt 0.375000 1.000000
vt 0.600000 0.750000
vt 0.625000 0.000000
vt 0.394270 0.255431
vt 0.394270 0.750000
vt 0.394270 0.500000
vt 0.625000 1.000000
vt 0.394270 0.994569
vt 0.394270 0.769270
vt 0.130431 0.750000
vt 0.875000 0.500000
vt 0.390911 0.000000
vt 0.625000 0.267604
vt 0.625000 0.983783
vt 0.335022 0.743527
vt 0.197422 0.714741
vt 0.156269 0.714741
vt 0.156269 0.743527
vt 0.156270 0.536520
vt 0.156269 0.507734
vt 0.291924 0.536520
vt 0.333076 0.536520
vt 0.333076 0.507734
vt 0.857396 0.500000
vt 0.600000 1.000000
vt 0.375000 0.255431
vt 0.375000 0.994569
vt 0.130431 0.500000
vt 0.875000 0.750000
s 0
f 1/1/1 50/2/1 21/3/1
f 21/3/2 50/2/2 13/4/2
f 25/5/2 13/4/2 50/2/2
f 32/6/3 26/7/3 30/8/3
f 26/7/4 54/9/4 9/10/4
f 52/11/4 55/12/4 54/9/4
f 55/12/4 49/13/4 54/9/4
f 45/14/5 43/15/5 47/16/5
f 30/8/5 26/7/5 48/17/5
f 1/18/5 43/15/5 26/7/5
f 38/19/5 34/20/5 40/21/5
f 30/8/5 34/20/5 21/22/5
f 32/6/6 52/23/6 29/24/6
f 22/3/1 34/25/1 11/1/1
f 22/3/4 35/26/4 33/27/4
f 31/8/3 36/28/3 35/26/3
f 11/29/2 36/28/2 28/7/2
f 28/7/5 22/22/5 11/18/5
f 18/3/1 39/25/1 7/1/1
f 18/3/4 40/26/4 37/27/4
f 27/8/3 38/30/3 40/26/3
f 7/29/2 38/30/2 24/7/2
f 24/7/5 18/22/5 7/18/5
f 15/3/1 44/25/1 5/1/1
f 15/3/4 43/26/4 41/27/4
f 23/8/3 42/30/3 43/26/3
f 5/29/2 42/30/2 20/7/2
f 20/7/5 15/22/5 5/18/5
f 10/3/1 47/25/1 3/1/1
f 10/3/4 46/26/4 45/27/4
f 19/8/3 48/30/3 46/26/3
f 3/29/2 48/30/2 14/7/2
f 14/7/5 10/22/5 3/18/5
f 4/31/1 6/3/1 2/1/1
f 25/32/2 6/3/2 8/5/2
f 16/6/3 52/33/3 51/34/3
f 4/35/4 17/36/4 53/37/4
f 6/22/5 49/38/5 2/18/5
f 8/39/6 12/24/6 16/6/6
f 1/1/1 49/40/1 50/2/1
f 51/41/2 32/6/2 13/4/2
f 32/6/2 30/8/2 13/4/2
f 30/8/2 21/3/2 13/4/2
f 25/5/2 51/41/2 13/4/2
f 32/6/3 29/24/3 26/7/3
f 9/10/4 49/13/4 1/29/4
f 26/7/4 29/24/4 54/9/4
f 29/24/4 52/11/4 54/9/4
f 9/10/4 1/29/4 26/7/4
f 52/11/4 53/42/4 55/12/4
f 55/12/4 53/42/4 17/35/4
f 17/35/4 49/13/4 55/12/4
f 49/13/4 9/10/4 54/9/4
f 45/14/5 46/43/5 26/7/5
f 43/15/5 42/44/5 47/16/5
f 45/14/5 26/7/5 43/15/5
f 44/45/5 41/46/5 1/18/5
f 1/18/5 21/22/5 37/47/5
f 21/22/5 39/48/5 37/47/5
f 44/45/5 1/18/5 37/47/5
f 44/45/5 37/47/5 40/21/5
f 42/44/5 44/45/5 40/21/5
f 42/44/5 40/21/5 33/49/5
f 47/16/5 42/44/5 33/49/5
f 35/50/5 36/51/5 30/8/5
f 47/16/5 33/49/5 35/50/5
f 26/7/5 46/43/5 48/17/5
f 48/17/5 47/16/5 35/50/5
f 35/50/5 30/8/5 48/17/5
f 1/18/5 41/46/5 43/15/5
f 38/19/5 39/48/5 21/22/5
f 34/20/5 33/49/5 40/21/5
f 38/19/5 21/22/5 34/20/5
f 30/8/5 36/51/5 34/20/5
f 32/6/6 51/52/6 52/23/6
f 22/3/1 33/27/1 34/25/1
f 22/3/4 31/8/4 35/26/4
f 31/8/3 28/7/3 36/28/3
f 11/29/2 34/53/2 36/28/2
f 28/7/5 31/8/5 22/22/5
f 18/3/1 37/27/1 39/25/1
f 18/3/4 27/8/4 40/26/4
f 27/8/3 24/7/3 38/30/3
f 7/29/2 39/53/2 38/30/2
f 24/7/5 27/8/5 18/22/5
f 15/3/1 41/27/1 44/25/1
f 15/3/4 23/8/4 43/26/4
f 23/8/3 20/7/3 42/30/3
f 5/29/2 44/53/2 42/30/2
f 20/7/5 23/8/5 15/22/5
f 10/3/1 45/27/1 47/25/1
f 10/3/4 19/8/4 46/26/4
f 19/8/3 14/7/3 48/30/3
f 3/29/2 47/53/2 48/30/2
f 14/7/5 19/8/5 10/22/5
f 4/31/1 8/5/1 6/3/1
f 25/32/2 50/54/2 6/3/2
f 8/5/2 16/6/2 25/32/2
f 16/6/2 51/34/2 25/32/2
f 16/6/3 12/24/3 52/33/3
f 4/35/4 2/29/4 17/36/4
f 2/29/4 49/55/4 17/36/4
f 52/33/4 12/24/4 53/37/4
f 12/24/4 4/35/4 53/37/4
f 6/22/5 50/56/5 49/38/5
f 8/39/6 4/57/6 12/24/6
